<mxfile host="Electron" modified="2024-08-21T03:57:26.617Z" agent="Mozilla/5.0 (Windows NT 10.0; Win64; x64) AppleWebKit/537.36 (KHTML, like Gecko) draw.io/22.1.18 Chrome/120.0.6099.199 Electron/28.1.2 Safari/537.36" etag="fkp3u8M3y7OelJBk3nB0" version="22.1.18" type="device">
  <diagram id="tFx8NVUHpEqBDBRQr2UT" name="Page-1">
    <mxGraphModel dx="648" dy="398" grid="1" gridSize="10" guides="1" tooltips="1" connect="1" arrows="1" fold="1" page="1" pageScale="1" pageWidth="850" pageHeight="1100" math="0" shadow="0">
      <root>
        <mxCell id="0" />
        <mxCell id="1" parent="0" />
        <mxCell id="BQzRS2RyABg-k8UjVCXS-5" value="parent of" style="edgeStyle=orthogonalEdgeStyle;rounded=0;orthogonalLoop=1;jettySize=auto;html=1;exitX=0.75;exitY=1;exitDx=0;exitDy=0;entryX=0.75;entryY=0;entryDx=0;entryDy=0;" edge="1" parent="1" source="BQzRS2RyABg-k8UjVCXS-1">
          <mxGeometry x="0.5" relative="1" as="geometry">
            <mxPoint x="340" y="120" as="targetPoint" />
            <mxPoint as="offset" />
          </mxGeometry>
        </mxCell>
        <mxCell id="BQzRS2RyABg-k8UjVCXS-1" value="Individual" style="rounded=0;whiteSpace=wrap;html=1;spacingBottom=0;spacingLeft=4;" vertex="1" parent="1">
          <mxGeometry x="280" y="40" width="80" height="40" as="geometry" />
        </mxCell>
        <mxCell id="BQzRS2RyABg-k8UjVCXS-2" value="child of" style="rounded=0;orthogonalLoop=1;jettySize=auto;html=1;entryX=0.25;entryY=1;entryDx=0;entryDy=0;exitX=0.25;exitY=0;exitDx=0;exitDy=0;" edge="1" parent="1" target="BQzRS2RyABg-k8UjVCXS-1">
          <mxGeometry relative="1" as="geometry">
            <mxPoint x="300" y="120" as="sourcePoint" />
            <mxPoint as="offset" />
          </mxGeometry>
        </mxCell>
        <mxCell id="BQzRS2RyABg-k8UjVCXS-6" value="sibling of" style="rounded=0;orthogonalLoop=1;jettySize=auto;html=1;entryX=0.25;entryY=0;entryDx=0;entryDy=0;exitX=0.25;exitY=1;exitDx=0;exitDy=0;" edge="1" parent="1" source="BQzRS2RyABg-k8UjVCXS-3" target="BQzRS2RyABg-k8UjVCXS-24">
          <mxGeometry x="-0.5" relative="1" as="geometry">
            <mxPoint as="offset" />
          </mxGeometry>
        </mxCell>
        <mxCell id="BQzRS2RyABg-k8UjVCXS-26" value="brother of" style="edgeStyle=orthogonalEdgeStyle;rounded=0;orthogonalLoop=1;jettySize=auto;html=1;exitX=0;exitY=0.75;exitDx=0;exitDy=0;entryX=1;entryY=0.75;entryDx=0;entryDy=0;" edge="1" parent="1" source="BQzRS2RyABg-k8UjVCXS-3">
          <mxGeometry relative="1" as="geometry">
            <mxPoint x="360" y="150" as="targetPoint" />
          </mxGeometry>
        </mxCell>
        <mxCell id="BQzRS2RyABg-k8UjVCXS-3" value="Individual" style="rounded=0;whiteSpace=wrap;html=1;spacingBottom=0;spacingLeft=4;" vertex="1" parent="1">
          <mxGeometry x="440" y="120" width="80" height="40" as="geometry" />
        </mxCell>
        <mxCell id="BQzRS2RyABg-k8UjVCXS-4" value="sibling of" style="rounded=0;orthogonalLoop=1;jettySize=auto;html=1;entryX=0.75;entryY=1;entryDx=0;entryDy=0;exitX=0.75;exitY=0;exitDx=0;exitDy=0;" edge="1" parent="1" source="BQzRS2RyABg-k8UjVCXS-24" target="BQzRS2RyABg-k8UjVCXS-3">
          <mxGeometry relative="1" as="geometry">
            <mxPoint x="360" y="120" as="sourcePoint" />
          </mxGeometry>
        </mxCell>
        <mxCell id="BQzRS2RyABg-k8UjVCXS-8" value="uncle/aunt of" style="rounded=0;orthogonalLoop=1;jettySize=auto;html=1;exitX=0;exitY=0.75;exitDx=0;exitDy=0;entryX=0.75;entryY=0;entryDx=0;entryDy=0;" edge="1" parent="1" source="BQzRS2RyABg-k8UjVCXS-7">
          <mxGeometry x="-0.36" y="4" relative="1" as="geometry">
            <mxPoint x="340" y="120" as="targetPoint" />
            <mxPoint as="offset" />
          </mxGeometry>
        </mxCell>
        <mxCell id="BQzRS2RyABg-k8UjVCXS-7" value="Individual" style="rounded=0;whiteSpace=wrap;html=1;spacingBottom=0;spacingLeft=4;" vertex="1" parent="1">
          <mxGeometry x="440" y="40" width="80" height="40" as="geometry" />
        </mxCell>
        <mxCell id="BQzRS2RyABg-k8UjVCXS-9" value="nephew/niece of" style="rounded=0;orthogonalLoop=1;jettySize=auto;html=1;exitX=1;exitY=0.25;exitDx=0;exitDy=0;entryX=0.25;entryY=1;entryDx=0;entryDy=0;" edge="1" parent="1" target="BQzRS2RyABg-k8UjVCXS-7">
          <mxGeometry x="0.2" relative="1" as="geometry">
            <mxPoint x="360" y="130" as="sourcePoint" />
            <mxPoint as="offset" />
          </mxGeometry>
        </mxCell>
        <mxCell id="BQzRS2RyABg-k8UjVCXS-12" value="grandparent of" style="rounded=0;orthogonalLoop=1;jettySize=auto;html=1;exitX=1;exitY=0.75;exitDx=0;exitDy=0;entryX=0.25;entryY=0;entryDx=0;entryDy=0;" edge="1" parent="1" source="BQzRS2RyABg-k8UjVCXS-10">
          <mxGeometry x="-0.28" y="9" relative="1" as="geometry">
            <mxPoint x="300" y="120" as="targetPoint" />
            <mxPoint as="offset" />
          </mxGeometry>
        </mxCell>
        <mxCell id="BQzRS2RyABg-k8UjVCXS-15" value="carer of" style="edgeStyle=orthogonalEdgeStyle;rounded=0;orthogonalLoop=1;jettySize=auto;html=1;exitX=0.25;exitY=1;exitDx=0;exitDy=0;entryX=0.25;entryY=0;entryDx=0;entryDy=0;" edge="1" parent="1" source="BQzRS2RyABg-k8UjVCXS-10" target="BQzRS2RyABg-k8UjVCXS-13">
          <mxGeometry x="-0.5" relative="1" as="geometry">
            <mxPoint as="offset" />
          </mxGeometry>
        </mxCell>
        <mxCell id="BQzRS2RyABg-k8UjVCXS-10" value="Individual" style="rounded=0;whiteSpace=wrap;html=1;spacingBottom=0;spacingLeft=4;" vertex="1" parent="1">
          <mxGeometry x="120" y="40" width="80" height="40" as="geometry" />
        </mxCell>
        <mxCell id="BQzRS2RyABg-k8UjVCXS-11" value="grandchild of" style="rounded=0;orthogonalLoop=1;jettySize=auto;html=1;entryX=0.75;entryY=1;entryDx=0;entryDy=0;exitX=0;exitY=0.25;exitDx=0;exitDy=0;" edge="1" parent="1" target="BQzRS2RyABg-k8UjVCXS-10">
          <mxGeometry x="0.2" relative="1" as="geometry">
            <mxPoint x="280" y="130" as="sourcePoint" />
            <mxPoint as="offset" />
          </mxGeometry>
        </mxCell>
        <mxCell id="BQzRS2RyABg-k8UjVCXS-14" value="cared by" style="edgeStyle=orthogonalEdgeStyle;rounded=0;orthogonalLoop=1;jettySize=auto;html=1;entryX=0.75;entryY=1;entryDx=0;entryDy=0;exitX=0.75;exitY=0;exitDx=0;exitDy=0;" edge="1" parent="1" source="BQzRS2RyABg-k8UjVCXS-13" target="BQzRS2RyABg-k8UjVCXS-10">
          <mxGeometry x="-0.5" relative="1" as="geometry">
            <mxPoint as="offset" />
          </mxGeometry>
        </mxCell>
        <mxCell id="BQzRS2RyABg-k8UjVCXS-17" style="edgeStyle=orthogonalEdgeStyle;rounded=0;orthogonalLoop=1;jettySize=auto;html=1;exitX=1;exitY=0.75;exitDx=0;exitDy=0;entryX=0;entryY=0.75;entryDx=0;entryDy=0;" edge="1" parent="1" source="BQzRS2RyABg-k8UjVCXS-13">
          <mxGeometry relative="1" as="geometry">
            <mxPoint x="280" y="150" as="targetPoint" />
          </mxGeometry>
        </mxCell>
        <mxCell id="BQzRS2RyABg-k8UjVCXS-13" value="Individual" style="rounded=0;whiteSpace=wrap;html=1;spacingBottom=0;spacingLeft=4;" vertex="1" parent="1">
          <mxGeometry x="120" y="120" width="80" height="40" as="geometry" />
        </mxCell>
        <mxCell id="BQzRS2RyABg-k8UjVCXS-16" style="edgeStyle=orthogonalEdgeStyle;rounded=0;orthogonalLoop=1;jettySize=auto;html=1;exitX=0;exitY=0.25;exitDx=0;exitDy=0;entryX=1;entryY=0.25;entryDx=0;entryDy=0;" edge="1" parent="1" target="BQzRS2RyABg-k8UjVCXS-13">
          <mxGeometry relative="1" as="geometry">
            <mxPoint x="280" y="130" as="sourcePoint" />
          </mxGeometry>
        </mxCell>
        <mxCell id="BQzRS2RyABg-k8UjVCXS-20" value="aquintance of" style="rounded=0;orthogonalLoop=1;jettySize=auto;html=1;exitX=0.25;exitY=0;exitDx=0;exitDy=0;entryX=0.25;entryY=1;entryDx=0;entryDy=0;" edge="1" parent="1" source="BQzRS2RyABg-k8UjVCXS-18" target="BQzRS2RyABg-k8UjVCXS-13">
          <mxGeometry relative="1" as="geometry" />
        </mxCell>
        <mxCell id="BQzRS2RyABg-k8UjVCXS-18" value="Individual" style="rounded=0;whiteSpace=wrap;html=1;spacingBottom=0;spacingLeft=4;" vertex="1" parent="1">
          <mxGeometry x="120" y="200" width="80" height="40" as="geometry" />
        </mxCell>
        <mxCell id="BQzRS2RyABg-k8UjVCXS-19" value="friend of" style="rounded=0;orthogonalLoop=1;jettySize=auto;html=1;exitX=0;exitY=0.75;exitDx=0;exitDy=0;entryX=0.75;entryY=0;entryDx=0;entryDy=0;" edge="1" parent="1" target="BQzRS2RyABg-k8UjVCXS-18">
          <mxGeometry relative="1" as="geometry">
            <mxPoint x="280" y="150" as="sourcePoint" />
          </mxGeometry>
        </mxCell>
        <mxCell id="BQzRS2RyABg-k8UjVCXS-23" value="managed by" style="edgeStyle=orthogonalEdgeStyle;rounded=0;orthogonalLoop=1;jettySize=auto;html=1;exitX=0.75;exitY=0;exitDx=0;exitDy=0;entryX=0.75;entryY=1;entryDx=0;entryDy=0;" edge="1" parent="1" source="BQzRS2RyABg-k8UjVCXS-21">
          <mxGeometry x="-0.5" relative="1" as="geometry">
            <mxPoint x="340" y="160" as="targetPoint" />
            <mxPoint as="offset" />
          </mxGeometry>
        </mxCell>
        <mxCell id="BQzRS2RyABg-k8UjVCXS-21" value="Individual" style="rounded=0;whiteSpace=wrap;html=1;spacingBottom=0;spacingLeft=4;" vertex="1" parent="1">
          <mxGeometry x="280" y="200" width="80" height="40" as="geometry" />
        </mxCell>
        <mxCell id="BQzRS2RyABg-k8UjVCXS-22" value="manages" style="edgeStyle=orthogonalEdgeStyle;rounded=0;orthogonalLoop=1;jettySize=auto;html=1;exitX=0.25;exitY=1;exitDx=0;exitDy=0;entryX=0.25;entryY=0;entryDx=0;entryDy=0;" edge="1" parent="1" target="BQzRS2RyABg-k8UjVCXS-21">
          <mxGeometry relative="1" as="geometry">
            <mxPoint x="300" y="160" as="sourcePoint" />
            <mxPoint as="offset" />
          </mxGeometry>
        </mxCell>
        <mxCell id="BQzRS2RyABg-k8UjVCXS-28" value="sister of" style="rounded=0;orthogonalLoop=1;jettySize=auto;html=1;exitX=0;exitY=0.25;exitDx=0;exitDy=0;entryX=0.75;entryY=1;entryDx=0;entryDy=0;" edge="1" parent="1" source="BQzRS2RyABg-k8UjVCXS-24">
          <mxGeometry relative="1" as="geometry">
            <mxPoint x="340" y="160" as="targetPoint" />
          </mxGeometry>
        </mxCell>
        <mxCell id="BQzRS2RyABg-k8UjVCXS-24" value="Individual" style="rounded=0;whiteSpace=wrap;html=1;spacingBottom=0;spacingLeft=4;" vertex="1" parent="1">
          <mxGeometry x="440" y="200" width="80" height="40" as="geometry" />
        </mxCell>
        <mxCell id="BQzRS2RyABg-k8UjVCXS-25" value="brother of" style="edgeStyle=orthogonalEdgeStyle;rounded=0;orthogonalLoop=1;jettySize=auto;html=1;exitX=1;exitY=0.25;exitDx=0;exitDy=0;entryX=0;entryY=0.25;entryDx=0;entryDy=0;" edge="1" parent="1" target="BQzRS2RyABg-k8UjVCXS-3">
          <mxGeometry relative="1" as="geometry">
            <mxPoint x="360" y="130" as="sourcePoint" />
          </mxGeometry>
        </mxCell>
        <mxCell id="BQzRS2RyABg-k8UjVCXS-27" value="brother of" style="rounded=0;orthogonalLoop=1;jettySize=auto;html=1;exitX=1;exitY=0.75;exitDx=0;exitDy=0;entryX=0.25;entryY=0;entryDx=0;entryDy=0;" edge="1" parent="1" target="BQzRS2RyABg-k8UjVCXS-24">
          <mxGeometry relative="1" as="geometry">
            <mxPoint x="360" y="150" as="sourcePoint" />
          </mxGeometry>
        </mxCell>
        <mxCell id="BQzRS2RyABg-k8UjVCXS-29" value="Individual" style="rounded=0;whiteSpace=wrap;html=1;spacingBottom=0;spacingLeft=4;" vertex="1" parent="1">
          <mxGeometry x="280" y="120" width="80" height="40" as="geometry" />
        </mxCell>
      </root>
    </mxGraphModel>
  </diagram>
</mxfile>
